<svg width="132" height="132" viewBox="0 0 132 132" fill="none" xmlns="http://www.w3.org/2000/svg">
  <path d="M42 28H90C101.046 28 110 36.9543 110 48V92C110 103.046 101.046 112 90 112H42C30.9543 112 22 103.046 22 92V48C22 36.9543 30.9543 28 42 28Z" fill="#E6E4E0"/>
  <path d="M46 14H86C94.8366 14 102 21.1634 102 30V38H30V30C30 21.1634 37.1634 14 46 14Z" fill="#D8D6D2"/>
  <path d="M32 38H100C100 33.5817 96.4183 30 92 30H40C35.5817 30 32 33.5817 32 38Z" fill="#F0EFEC"/>
  <circle cx="51" cy="57" r="7" fill="#232323"/>
  <circle cx="81" cy="57" r="7" fill="#232323"/>
  <circle cx="66" cy="72" r="7" fill="#232323"/>
  <circle cx="51" cy="90" r="7" fill="#232323"/>
  <circle cx="81" cy="90" r="7" fill="#232323"/>
</svg>
