<svg width="760" height="560" viewBox="0 0 760 560" fill="none" xmlns="http://www.w3.org/2000/svg">
  <rect width="760" height="560" rx="40" fill="#E8ECE6"/>
  <g filter="url(#blur)">
    <rect x="150" y="164" width="180" height="126" rx="32" fill="rgba(24,24,24,0.7)"/>
    <rect x="292" y="104" width="200" height="214" rx="36" fill="rgba(255,255,255,0.48)"/>
    <rect x="462" y="148" width="126" height="126" rx="30" fill="rgba(255,255,255,0.62)"/>
  </g>
  <rect x="150.5" y="164.5" width="179" height="125" rx="31.5" stroke="rgba(255,255,255,0.2)"/>
  <rect x="292.5" y="104.5" width="199" height="213" rx="35.5" stroke="rgba(255,255,255,0.42)"/>
  <rect x="462.5" y="148.5" width="125" height="125" rx="29.5" stroke="rgba(255,255,255,0.55)"/>
  <rect x="182" y="206" width="72" height="12" rx="6" fill="#FFFFFF"/>
  <rect x="182" y="232" width="112" height="10" rx="5" fill="#9CA29A"/>
  <rect x="326" y="154" width="86" height="14" rx="7" fill="#111111"/>
  <rect x="326" y="184" width="126" height="12" rx="6" fill="#C1C6BE"/>
  <rect x="326" y="212" width="98" height="12" rx="6" fill="#C1C6BE"/>
  <rect x="326" y="252" width="90" height="18" rx="9" fill="url(#limeSoft)"/>
  <path d="M494 210L516 232L552 190" stroke="url(#limeStroke)" stroke-width="18" stroke-linecap="round" stroke-linejoin="round"/>
  <circle cx="540" cy="110" r="28" fill="url(#lime)"/>
  <defs>
    <filter id="blur" x="118" y="72" width="502" height="278" filterUnits="userSpaceOnUse" color-interpolation-filters="sRGB">
      <feFlood flood-opacity="0" result="BackgroundImageFix"/>
      <feGaussianBlur in="BackgroundImageFix" stdDeviation="8"/>
      <feComposite in2="SourceAlpha" operator="in" result="effect1_backgroundBlur_1_1"/>
      <feBlend mode="normal" in="SourceGraphic" in2="effect1_backgroundBlur_1_1" result="shape"/>
    </filter>
    <linearGradient id="lime" x1="540" y1="82" x2="540" y2="138" gradientUnits="userSpaceOnUse">
      <stop stop-color="#C7FF43"/>
      <stop offset="1" stop-color="#9ED61E"/>
    </linearGradient>
    <linearGradient id="limeSoft" x1="371" y1="252" x2="371" y2="270" gradientUnits="userSpaceOnUse">
      <stop stop-color="#F0F7D5"/>
      <stop offset="1" stop-color="#E2EBBF"/>
    </linearGradient>
    <linearGradient id="limeStroke" x1="494" y1="190" x2="552" y2="232" gradientUnits="userSpaceOnUse">
      <stop stop-color="#C7FF43"/>
      <stop offset="1" stop-color="#9ED61E"/>
    </linearGradient>
  </defs>
</svg>
