<svg width="760" height="560" viewBox="0 0 760 560" fill="none" xmlns="http://www.w3.org/2000/svg">
  <rect width="760" height="560" rx="40" fill="#E8ECE6"/>
  <rect x="126" y="88" width="508" height="320" rx="34" fill="#F8F9F6" stroke="rgba(18,18,18,0.08)"/>
  <rect x="158" y="120" width="444" height="256" rx="28" fill="#FFFFFF" stroke="rgba(18,18,18,0.06)"/>
  <rect x="194" y="162" width="128" height="14" rx="7" fill="#171717"/>
  <rect x="194" y="192" width="210" height="12" rx="6" fill="#C3C8C0"/>
  <rect x="194" y="220" width="182" height="12" rx="6" fill="#C3C8C0"/>
  <rect x="194" y="262" width="180" height="76" rx="24" fill="#171717"/>
  <rect x="222" y="294" width="64" height="12" rx="6" fill="#FFFFFF"/>
  <rect x="438" y="164" width="130" height="130" rx="30" fill="#F3F5EF" stroke="rgba(18,18,18,0.06)"/>
  <path d="M470 229L495 254L539 202" stroke="url(#limeStroke)" stroke-width="18" stroke-linecap="round" stroke-linejoin="round"/>
  <rect x="434" y="318" width="144" height="18" rx="9" fill="url(#limeSoft)"/>
  <circle cx="564" cy="136" r="26" fill="url(#lime)"/>
  <defs>
    <linearGradient id="lime" x1="564" y1="110" x2="564" y2="162" gradientUnits="userSpaceOnUse">
      <stop stop-color="#C7FF43"/>
      <stop offset="1" stop-color="#9ED61E"/>
    </linearGradient>
    <linearGradient id="limeSoft" x1="506" y1="318" x2="506" y2="336" gradientUnits="userSpaceOnUse">
      <stop stop-color="#F1F8D7"/>
      <stop offset="1" stop-color="#E3ECBF"/>
    </linearGradient>
    <linearGradient id="limeStroke" x1="470" y1="202" x2="539" y2="254" gradientUnits="userSpaceOnUse">
      <stop stop-color="#C7FF43"/>
      <stop offset="1" stop-color="#9ED61E"/>
    </linearGradient>
  </defs>
</svg>
