<svg width="760" height="560" viewBox="0 0 760 560" fill="none" xmlns="http://www.w3.org/2000/svg">
  <rect width="760" height="560" rx="40" fill="#E8ECE6"/>
  <rect x="156" y="210" width="188" height="128" rx="30" fill="#171717"/>
  <rect x="292" y="236" width="112" height="78" rx="24" fill="#FFFFFF" stroke="rgba(18,18,18,0.06)"/>
  <rect x="384" y="116" width="206" height="252" rx="38" fill="#FFFFFF" stroke="rgba(18,18,18,0.08)"/>
  <rect x="420" y="164" width="96" height="16" rx="8" fill="#171717"/>
  <rect x="420" y="198" width="112" height="18" rx="9" fill="url(#limeSoft)"/>
  <rect x="532" y="198" width="26" height="18" rx="9" fill="#171717"/>
  <text x="420" y="286" fill="#171717" font-family="Manrope, sans-serif" font-size="54" font-weight="800" letter-spacing="-0.06em">6 000</text>
  <text x="420" y="322" fill="#7B8178" font-family="Manrope, sans-serif" font-size="26" font-weight="700" letter-spacing="-0.04em">RUB</text>
  <circle cx="560" cy="104" r="28" fill="url(#lime)"/>
  <rect x="186" y="252" width="78" height="12" rx="6" fill="#FFFFFF"/>
  <rect x="186" y="276" width="104" height="10" rx="5" fill="#94998F"/>
  <circle cx="348" cy="275" r="8" fill="url(#lime)"/>
  <defs>
    <linearGradient id="lime" x1="560" y1="76" x2="560" y2="132" gradientUnits="userSpaceOnUse">
      <stop stop-color="#C7FF43"/>
      <stop offset="1" stop-color="#9ED61E"/>
    </linearGradient>
    <linearGradient id="limeSoft" x1="476" y1="198" x2="476" y2="216" gradientUnits="userSpaceOnUse">
      <stop stop-color="#F1F8D7"/>
      <stop offset="1" stop-color="#E3ECBF"/>
    </linearGradient>
  </defs>
</svg>
