<svg width="760" height="560" viewBox="0 0 760 560" fill="none" xmlns="http://www.w3.org/2000/svg">
  <rect width="760" height="560" rx="40" fill="#E8ECE6"/>
  <rect x="104" y="92" width="552" height="312" rx="34" fill="#F8F9F6" stroke="rgba(18,18,18,0.08)"/>
  <path d="M184 132H576" stroke="rgba(18,18,18,0.08)" stroke-width="2"/>
  <path d="M184 208H576" stroke="rgba(18,18,18,0.06)" stroke-width="2"/>
  <path d="M184 284H576" stroke="rgba(18,18,18,0.06)" stroke-width="2"/>
  <path d="M184 360H576" stroke="rgba(18,18,18,0.06)" stroke-width="2"/>
  <path d="M244 116V380" stroke="rgba(18,18,18,0.06)" stroke-width="2"/>
  <path d="M380 116V380" stroke="rgba(18,18,18,0.06)" stroke-width="2"/>
  <path d="M516 116V380" stroke="rgba(18,18,18,0.06)" stroke-width="2"/>
  <rect x="154" y="150" width="180" height="88" rx="28" fill="#171717"/>
  <rect x="184" y="184" width="78" height="12" rx="6" fill="#FFFFFF"/>
  <rect x="184" y="208" width="118" height="10" rx="5" fill="#8F958D"/>
  <rect x="428" y="166" width="156" height="54" rx="20" fill="#FFFFFF" stroke="rgba(18,18,18,0.08)"/>
  <rect x="454" y="188" width="68" height="10" rx="5" fill="#171717"/>
  <circle cx="560" cy="136" r="28" fill="url(#lime)"/>
  <path d="M291 308L430 226" stroke="url(#line)" stroke-width="8" stroke-linecap="round"/>
  <circle cx="290" cy="308" r="18" fill="#FFFFFF" stroke="#171717" stroke-width="6"/>
  <circle cx="430" cy="226" r="18" fill="#171717"/>
  <circle cx="430" cy="226" r="8" fill="url(#lime)"/>
  <rect x="458" y="288" width="102" height="58" rx="22" fill="#171717"/>
  <rect x="482" y="312" width="54" height="10" rx="5" fill="#FFFFFF"/>
  <defs>
    <linearGradient id="lime" x1="560" y1="108" x2="560" y2="164" gradientUnits="userSpaceOnUse">
      <stop stop-color="#C7FF43"/>
      <stop offset="1" stop-color="#9ED61E"/>
    </linearGradient>
    <linearGradient id="line" x1="291" y1="308" x2="430" y2="226" gradientUnits="userSpaceOnUse">
      <stop stop-color="#171717"/>
      <stop offset="1" stop-color="#A8E11D"/>
    </linearGradient>
  </defs>
</svg>
